<mxfile host="app.diagrams.net" modified="2024-02-06T06:23:30.132Z" agent="Mozilla/5.0 (X11; Linux x86_64) AppleWebKit/537.36 (KHTML, like Gecko) Chrome/119.0.0.0 Safari/537.36" version="23.1.1" etag="KgmhwArOi0WgiPI3jv12" type="github">
  <diagram name="Halaman-1" id="f9Wy07fAnDaH9E6lbr2Y">
    <mxGraphModel>
      <root>
        <mxCell id="0" />
        <mxCell id="1" parent="0" />
      </root>
    </mxGraphModel>
  </diagram>
</mxfile>
